<svg width="945" height="1080" viewBox="0 0 945 1080" fill="none" xmlns="http://www.w3.org/2000/svg">
<path d="M769.629 -458.989C863.646 -301.929 832.79 -194.382 871.907 -80.4994C938.81 114.274 963.985 201.069 927.053 347.426C887.901 502.582 819.93 508.17 762.011 586.213C698.036 672.417 770.45 723.331 657.961 868.571C525.028 1040.21 352.493 1014.59 241.485 1075.03C108.864 1147.23 41.2773 1269.98 -94.7837 1243.99C-180.198 1227.67 -277.842 1090.69 -382.49 1052.03C-462.755 1022.38 -540.179 1128.07 -679.689 1048.08C-819.198 968.088 -738.498 904.61 -864.499 739.988C-990.499 575.367 -1080.36 626.778 -1099.83 479.393C-1115.57 360.176 -1063.72 320.915 -1068.63 185.004C-1074.51 22.0502 -1153.18 -63.6934 -1127.32 -147.86C-1104.18 -223.195 -1017.17 -280.505 -966.874 -393.454C-916.573 -506.403 -941.474 -554.892 -856.054 -620.14C-778.942 -679.043 -746.468 -724.253 -527.264 -745.134C-415.416 -786.482 -336.756 -916.826 -241.648 -933.596C-99.1555 -958.721 -27.4197 -921.669 53.9848 -886.709C126.429 -855.596 156.16 -806.593 300.605 -824.091C431.566 -839.954 477.553 -709.01 547.556 -630.025C607.191 -562.738 672.261 -621.648 769.629 -458.989Z" fill="#35A5B1" fill-opacity="0.8"/>
</svg>
