<svg width="907" height="1080" viewBox="0 0 907 1080" fill="none" xmlns="http://www.w3.org/2000/svg">
<path d="M-996.041 634.429C-1090.06 477.368 -1059.2 369.822 -1098.32 255.939C-1165.22 61.1661 -1190.4 -25.6291 -1153.47 -171.987C-1114.31 -327.143 -1046.34 -332.731 -988.423 -410.773C-924.447 -496.977 -996.861 -547.891 -884.373 -693.131C-751.44 -864.768 -578.905 -839.153 -467.897 -899.588C-335.275 -971.79 -267.689 -1094.54 -131.628 -1068.55C-46.2142 -1052.23 51.4303 -915.248 156.078 -876.591C236.344 -846.94 313.767 -952.627 453.277 -872.638C592.786 -792.648 512.086 -729.17 638.087 -564.549C764.087 -399.928 853.946 -451.339 873.414 -303.954C889.161 -184.736 837.308 -145.476 842.217 -9.56411C848.103 153.389 926.768 239.133 900.91 323.3C877.764 398.635 790.763 455.944 740.462 568.893C690.161 681.843 715.062 730.332 629.642 795.58C552.53 854.483 520.056 899.692 300.852 920.574C189.004 961.921 110.344 1092.27 15.2366 1109.04C-127.256 1134.16 -198.992 1097.11 -280.397 1062.15C-352.841 1031.04 -382.572 982.033 -527.017 999.53C-657.978 1015.39 -703.964 884.449 -773.967 805.464C-833.602 738.178 -898.673 797.087 -996.041 634.429Z" fill="#35A5B1"/>
</svg>
