<svg width="1254" height="963" viewBox="0 0 1254 963" fill="none" xmlns="http://www.w3.org/2000/svg">
<path d="M827.297 -952.991C969.362 -837.558 977.15 -725.944 1052.86 -632.308C1182.34 -472.163 1235.69 -399.213 1251.04 -249.051C1267.31 -89.8608 1205.35 -61.3623 1177.62 31.7833C1146.98 134.67 1232.45 157.746 1176.42 332.7C1110.2 539.452 939.313 574.392 855.669 669.149C755.74 782.356 734.212 920.817 597.467 942.929C511.623 956.81 373.017 861.485 261.458 860.951C175.893 860.541 139.285 986.335 -19.169 958.884C-177.623 931.433 -123.501 844.183 -298.206 732.584C-472.912 620.985 -539.767 700.03 -608.47 568.191C-664.042 461.549 -628.744 406.922 -679.841 280.886C-741.106 129.773 -844.354 76.1052 -848.841 -11.8301C-852.858 -90.5379 -790.704 -174.147 -782.067 -297.489C-773.431 -420.83 -813.414 -457.878 -755.462 -548.407C-703.146 -630.132 -688.094 -683.721 -489.251 -778.316C-398.29 -855.424 -368.954 -1004.81 -285.318 -1053.1C-160.012 -1125.44 -79.9297 -1115.16 8.52273 -1110.15C87.2396 -1105.69 131.937 -1069.81 261.686 -1135.66C379.324 -1195.36 467.323 -1088.04 560.119 -1037.76C639.171 -994.926 680.169 -1072.54 827.297 -952.991Z" fill="#35A5B1" fill-opacity="0.6"/>
</svg>
